<svg version="1" xmlns="http://www.w3.org/2000/svg" width="533.333" height="533.333" viewBox="0 0 400.000000 400.000000"><path d="M205.5 32.8c-1.6.2-3.3.8-3.6 1.4-1.3 2-9 2.6-15.8 1.2-7.8-1.6-9.1-1.7-7.1-.4.9.6 1 1 .3 1-.6 0-2 .3-3 .6-1.3.4-1.4.3-.5-.3.9-.7.3-1-2-1-1.8 0-2.7.2-2 .5 1.8.6-.4 3.2-2.7 3.2-1.4 0-1.4-.2-.1-1 .8-.5 1-1 .4-1-1.6 0-3.5 2.5-2.6 3.5.4.4 0 .6-.8.3-1.5-.5-2.1-.1-7.4 4.7-7.5 6.7-9.7 8.5-10.5 8.5-2.2 0-14.2 13.4-18.7 21-9.8 16.4-10.6 19.3-10.4 39.8.3 22.3.5 26.4 1.4 28.4.5 1.1.4 1.8-.2 1.8-.6 0-1.2-.8-1.4-1.7-.2-1.3-.6-1-1.5 1-1.1 2.3-1 2.7.2 2.7.8 0 1.5.4 1.5 1 0 .5.5 1 1.1 1 2.2 0 3.5 2.6 3.6 7.2.1 3 .9 6.1 2.3 8.3 1.2 2 2.4 3.5 2.5 3.3.2-.2.6-4.1.9-8.8 1.3-18.3 3.8-32.5 7.6-42.5 1-2.8 2.5-8.4 3.5-12.6.9-4.1 2-8 2.4-8.7.4-.6 3.1-1.4 6.1-1.6 3-.2 6.5-.7 7.7-1.1 1.5-.5 2.8-.1 4 1 1.5 1.6 3 1.7 12.2 1.1 12.9-.8 21.5-2.3 26.1-4.6 1.9-1 5.4-2.4 7.7-3.1 2.3-.6 4.1-1.5 3.8-1.9-.2-.3 1.6-1.7 4.1-3 2.4-1.4 4.4-2.9 4.4-3.4s1.5-.6 3.4-.3c2.2.3 4.1 0 5.3-.8 1.3-1.1 1.4-1.4.3-1.5-2.5 0 .3-1.7 4-2.4 1.9-.3 3-.3 2.5.2-1.9 1.4-7.5 8.3-7.5 9.2 0 .6.7 1 1.6 1 1.1 0 1.4.6.8 2.2l-.6 2.3 1.8-2.1c3.1-3.4 6.5-4.9 7.5-3.3.5.8.9 2 .9 2.6 0 2 1 1.6 3.2-1.2 3.2-4.1 8-3.2 9.2 1.9.6 2.5.5 2.8-1.3 2.3-2.9-.7-2.6 0 .9 3 1.7 1.3 2.8 2.9 2.5 3.3-.3.5 0 1.2.8 1.7 3 1.9 5.7 6.7 5.7 10.3 0 2.1.8 6.4 1.9 9.6 1 3.3 2.1 9.7 2.5 14.4.8 11.2 2 36 1.8 38.5-.2 3.3 1.6-.4 2.4-4.9.4-2.7 1.2-4 2.7-4.4 1.9-.5 2-.5.1-2-1.6-1.3-1.7-1.4-.1-.9 1.9.7 1.9 1 1.8-9.3-.1-4.2.5-9.7 1.4-12.4.8-2.7 1.5-6.9 1.5-9.3 0-2.3.3-4.3.8-4.3.6 0 .4-4.5-1.2-22.5-.4-4.6-.1-6.6 2-12 1.7-4.6 0-8.7-6.5-16.1-5.9-6.6-11.7-11.2-17.6-13.9-1.6-.7-4.6-2.8-6.5-4.7-2-1.8-5.4-4.1-7.5-5.1-2.2-1-5.2-3.5-6.6-5.6-2.3-3.3-3.2-3.8-6.5-3.8-2.2 0-5.7-1-7.9-2.3-4.7-2.7-8.8-3.7-13-3.2zm33.2 38.8c-.3.3-1.2.4-1.9.1-.8-.3-.5-.6.6-.6 1.1-.1 1.7.2 1.3.5z"/><path d="M162 122.1c1.1.8.8.9-1.3.4-1.7-.3-2.6-.2-2.3.3.3.6-1.6 1.3-4.2 1.7-4.6.7-7.6 2.4-9.2 5.5-.7 1.2 0 1.5 3.8 1.4 2.6-.1 7.2-.4 10.2-.8 7.8-1 9.6-.9 18 .9 13.5 2.8 13.8 2.8 14.5-.6.8-3.6-1.6-6.9-5.1-6.9-1.3 0-2.6-.5-2.9-1-.3-.6-1.4-1-2.3-.9-1.4 0-1.4.2.3 1 2.2 1 1.2.8-6.5-1.1-5.1-1.4-14.9-1.3-13 .1zM215.2 125.8c-2.2.7-1.4 6.8 1.1 8.6 1.2.9 1.6 1.4.8 1-.9-.4-1.2-.2-.9.7.2.7-.5 2.2-1.6 3.1l-2.1 1.8 2.7 2.4c1.8 1.6 2.3 2.7 1.6 3.4-.7.7-.3 1.2 1.1 1.7 1.2.3 1.8 1.1 1.5 1.7-.4.6-.1.9.7.6.8-.3 2.7.1 4.2.9 3.6 1.8 5.5 1.3 3.3-1-1-.9-1.4-1.7-.9-1.7.5 0 1.4.5 2 1.1.7.7 1.7.8 2.5.3 2-1.3 4.8-1.5 4.8-.4 0 .6.5 1 1.1 1 .5 0 .8-.4.4-.9-.3-.5-.1-1.2.5-1.6.5-.3 1-.2 1 .3s.7.9 1.4.9c1.1 0 1.2-.5.6-1.7-.9-1.7-.4-3 1.1-3 .5 0 .6.6.3 1.3-.5 1.4 4.7 3.7 8.4 3.7 2.9 0 2.8-1.9-.3-5.3-3.5-3.7-7.6-5.7-14.2-6.7-6.2-1-7.1-1.6-5.6-3.1.7-.7 3.3-.9 6.9-.5 3.3.3 7.1.7 8.7.8 1.5 0 2.5.3 2.2.6-.6.7 2.7 3.1 4.3 3.2.7 0 1-.5.6-1.1-.5-.8.3-1 2.5-.7 4 .6 4-1-.1-4.9-5.7-5.3-13.8-7.4-27.6-7.2-6.5.2-12.3.4-13 .7zm21.8 14c0 .5-1.3.7-3 .4-1.6-.2-3-.6-3-.8 0-.2 1.4-.4 3-.4 1.7 0 3 .4 3 .8zm5 1.2c1.3.8 1.3 1-.2 1-.9 0-2-.5-2.3-1-.8-1.3.5-1.3 2.5 0zm-13 5.1c0 1.5-.4 1.9-1.6 1.5-.9-.3-2.3-.6-3.2-.6-1.2-.1-1-.5.8-1.5 3.4-1.9 4-1.9 4 .6zM157.5 136.9c-2.2 1-5 3-6.3 4.4l-2.4 2.5 9.6.7c5.3.4 9.4 1 9.2 1.4-.3.4 1.1.5 3 .3s3.4 0 3.4.6c0 1.4 5.3 2.2 6.7 1 .7-.5 1.6-.8 2-.5.4.2 1.6.1 2.7-.2 2.8-1 3.2-7.7.5-9.1-1.1-.7-1.7-1.6-1.2-2.3.5-.8.2-.8-.9.1s-2.3 1-4.2.2c-4.6-1.7-17.6-1.2-22.1.9zm16 .1c1.4.6.2.9-4.1.9-3.4.1-7.5.6-9.3 1.2-4.3 1.5-4.9.6-.9-1.4 3.5-1.8 11-2.1 14.3-.7zm-10.5 5c0 .5-.4 1-1 1-.5 0-1-.5-1-1 0-.6.5-1 1-1 .6 0 1 .4 1 1zm14.8 1.2c-.6 1.8-2.8 2.1-2.8.4 0-.9.7-1.6 1.6-1.6.9 0 1.4.5 1.2 1.2zM182.5 177.7c-1.6 1.6-1.6 1.7.1 3 1 .7 2.3 1.3 2.8 1.2.6 0 .5-.3-.1-.6-.7-.2-1.3-1.1-1.3-1.9 0-1.6 3.3-1.8 6.1-.4 2.3 1.3 2.5.7.3-1.4-2-2.1-5.8-2-7.9.1zM206.2 180.5c-2.7 3.1-2.7 3-.2 3.2 10.9 1 14.4-.3 10.1-3.8-3.3-2.7-7.3-2.4-9.9.6zM197.2 183.2c.3.7 1.5 1.4 2.9 1.5 1.4.1 1.7 0 .7-.3s-1.8-1-1.8-1.5-.5-.9-1.1-.9c-.6 0-.9.6-.7 1.2zM167.8 200.8c-2.7.2-4.8.7-4.8 1.1 0 .8 9.8 6.1 11.2 6.1.4 0 .5-.7.2-1.5-.4-.8-.3-2.3.1-3.3.6-1.6.7-1.6 2.1.2 1.3 1.8 1.4 1.8 1.4.2s.7-1.7 5.3-1.2c2.8.3 6.6.8 8.2 1.2 1.7.3 7.9.7 13.8.8 7.9.1 11 .5 11.6 1.5.5.7 1.3 1.1 1.9.7.5-.3 1.2.3 1.5 1.4.3 1.2 0 2-.8 2-.7 0-1.9.8-2.6 1.7-1.2 1.5-1.2 1.6.4 1 .9-.3 1.7-.2 1.7.4 0 .6.9.8 2.1.4 2.6-.9 9.8-5.7 9.9-6.7 0-1.6-16.8-4.7-25-4.6-5.7 0-31.7-1.2-33-1.6-.3 0-2.6 0-5.2.2zm4.9 4.4c-.3.8-.6.5-.6-.6-.1-1.1.2-1.7.5-1.3.3.3.4 1.2.1 1.9zM212.5 254.4c-2.3.7-7.8 1.1-13 1-4.9-.2-10.6.1-12.5.6-2.3.6-3.6.6-3.8 0-.2-.6-1.3-1-2.4-1-3.7 0-.1 2.8 5 3.8 11.5 2.3 32.2-.9 32.2-4.9 0-1.1-.5-1.1-5.5.5z"/><path d="M219.2 259.1c-1.3.5-2.8.7-3.3.4-.5-.4-.6 0-.3.8.6 1.5-.1 1.7-12.4 3.6-5.9.8-13.2.4-22.6-1.4-6.2-1.2-3.5 1.1 4 3.5 11.3 3.5 27.4 1.7 35.8-4 5.2-3.6 4.5-5.2-1.2-2.9zM264.8 280.2c-3.2.6-5.8 1.3-5.8 1.7 0 .4 2.7 2 6 3.6 6.5 3.1 7 4.2 4.6 9.8-1.8 4.3-11.3 14-12.8 13.1-.6-.4-.8-.3-.4.4.8 1.3-5.3 6.1-11.9 9.5-13.3 6.6-42 12.3-57.5 11.4-18.3-1.2-38.6-10.5-45.9-21.1-5.8-8.4-6.9-22-2-25.7 3-2.3 1.8-3.6-1.8-1.9-1.6.7-4.4 1.6-6.3 2.1-3.6.8-12.1 3.7-17.5 5.9-3.6 1.6-19.5 5.8-36.9 10-7.1 1.7-15.4 4.4-18.5 5.9-3.1 1.6-10.7 5-16.9 7.6-12.6 5.3-20.4 10-28.3 17.1-3 2.7-6.6 5.8-8 6.9C.4 340 0 343.3 0 372.6V400h400v-25.5c0-22.1-.2-25.6-1.5-26.2-.9-.3-2.4-2.2-3.5-4.3-2.1-4.1-7.8-9.5-11.9-11.3-1.4-.6-7.5-4-13.4-7.4-6-3.5-11-6.3-11.2-6.3-.3 0-3.7-1.6-7.7-3.6-4-1.9-9.8-4-12.8-4.6-3-.5-7.9-2.1-10.8-3.4-2.9-1.3-5.6-2.4-6.1-2.4-2 0-23.3-10.1-29.4-13.9-3.7-2.4-7.1-4-7.7-3.6-.9.6-6-4-6-5.5 0-.9-4.7-3-6.3-2.9-.7.1-3.8.6-6.9 1.1z"/></svg>